<?xml version="1.0" standalone="no"?>
<!DOCTYPE svg PUBLIC "-//W3C//DTD SVG 20010904//EN"
 "http://www.w3.org/TR/2001/REC-SVG-20010904/DTD/svg10.dtd">
<svg version="1.0" xmlns="http://www.w3.org/2000/svg"
 width="512.000000pt" height="512.000000pt" viewBox="0 0 512.000000 512.000000"
 preserveAspectRatio="xMidYMid meet">
<metadata>
Created by potrace 1.11, written by Peter Selinger 2001-2013
</metadata>
<g transform="translate(0.000000,512.000000) scale(0.100000,-0.100000)"
fill="#000000" stroke="none">
<path d="M470 5104 c-212 -45 -395 -224 -452 -439 -11 -41 -13 -441 -13 -2115
l0 -2065 23 -65 c76 -210 244 -362 447 -405 105 -22 4065 -22 4170 0 109 23
207 76 290 159 80 79 122 147 157 251 l23 70 0 2060 c0 1670 -2 2069 -13 2110
-58 219 -242 395 -460 440 -64 13 -329 15 -2090 14 -1687 -1 -2028 -3 -2082
-15z m657 -1342 l-137 -137 0 -1043 0 -1042 50 0 50 0 0 1033 0 1032 108 108
c103 103 108 106 121 86 12 -20 6 -28 -83 -118 l-96 -96 2 -1025 3 -1025 170
1 c187 0 278 17 379 72 123 66 225 216 272 399 13 53 26 98 27 100 2 2 23 -50
46 -114 81 -223 209 -465 297 -563 l36 -40 -1016 0 c-559 0 -1016 2 -1016 4 0
3 58 53 130 111 l130 107 0 1018 0 1018 -130 118 c-71 66 -130 122 -130 127 0
4 208 7 462 7 l463 0 -138 -138z m2648 128 c347 -25 537 -89 689 -231 129
-120 184 -242 193 -424 5 -93 2 -122 -16 -190 -59 -213 -215 -365 -446 -434
-126 -38 -265 -52 -572 -58 l-293 -6 0 -472 0 -473 115 -104 115 -103 -225 -3
c-124 -1 -326 -1 -449 0 l-225 3 135 113 134 113 0 389 0 390 -62 -1 c-35 0
-94 -9 -133 -20 -87 -25 -117 -28 -122 -11 -3 8 21 24 64 44 54 25 87 32 158
37 l90 6 3 48 3 47 -83 0 c-101 0 -181 -20 -260 -63 -47 -26 -60 -29 -67 -18
-23 36 103 166 197 202 33 12 90 24 135 27 l77 5 0 476 0 476 -115 115 c-63
63 -115 118 -115 122 0 12 912 9 1075 -2z m892 -282 c184 -201 213 -613 58
-858 -158 -250 -451 -349 -1039 -351 l-206 0 0 -402 1 -402 154 -182 155 -183
-488 0 -489 0 -23 25 -23 25 451 0 c249 0 452 3 452 6 0 3 -54 68 -120 144
l-120 139 0 440 0 440 278 0 c302 -1 418 10 580 57 197 57 344 168 416 314 50
101 65 165 72 295 11 198 -26 323 -147 485 -52 70 -56 79 -31 66 15 -8 46 -34
69 -58z m-2465 -1610 c9 -7 50 -80 92 -162 42 -82 119 -213 171 -292 l96 -143
-43 -85 -42 -86 -1021 0 -1022 0 -23 25 -23 25 1031 0 1032 0 28 63 29 62 -42
55 c-103 136 -198 298 -266 452 -21 49 -39 91 -39 93 0 10 27 5 42 -7z"/>
<path d="M3343 3694 c-10 -4 -13 -112 -13 -490 l0 -484 50 0 50 0 0 435 0 435
150 0 c185 0 325 -15 398 -42 60 -23 126 -77 156 -130 l20 -33 -43 39 c-95 84
-227 116 -483 116 l-148 0 0 -412 0 -411 128 6 c225 11 398 63 498 150 105 92
146 260 109 452 -35 184 -147 293 -358 346 -66 17 -123 21 -292 25 -115 2
-216 1 -222 -2z"/>
</g>
</svg>
